# xmcd CD database file
#
# Track frame offsets:
#	150
#	15198
#	28488
#	42152
#	53554
#	71462
#	85167
#	96797
#	112730
#	126079
#	137322
#	152188
#	175374
#	189785
#	202713
#	218970
#	230079
#
# Disc length: 3235 seconds
#
# Revision: 4
# Processed by: cddbd v1.5.2PL0 Copyright (c) Steve Scherf et al.
# Submitted via: jetAudio 5
#
DISCID=d40ca111
DTITLE=Various Artist - Country Jewels
DYEAR=1999
DGENRE=Country
TTITLE0=Upton Crosby - 5.6.7.8.
TTITLE1=King Stewart - Tennessee Waltz
TTITLE2=Gill - A Little More Love
TTITLE3=Dolly Parton - Nine To Five
TTITLE4=Leskela Teijo - Wish You Were Here
TTITLE5=Locklin - Send Me The Pillow
TTITLE6=Richardson - Running Bear
TTITLE7=Springsteen - All That Heaven Will Allow
TTITLE8=Stuart Tritt - Honky Tonkins What I Do Best
TTITLE9=Baker - She Lays It All On The Line
TTITLE10=Hobus - Country Girls
TTITLE11=Denver Kniss Taylor - Sunshine On My Shoulder
TTITLE12=Wiseman Bruce - If I Ain'T Got You
TTITLE13=Weiss - Rhinestone Cowboy
TTITLE14=Crowell Clark - Rose Of Memphis
TTITLE15=Brown - Oh Lonesome Me
TTITLE16=Lee - Rompin Stompin
EXTD=
EXTT0=
EXTT1=
EXTT2=
EXTT3=
EXTT4=
EXTT5=
EXTT6=
EXTT7=
EXTT8=
EXTT9=
EXTT10=
EXTT11=
EXTT12=
EXTT13=
EXTT14=
EXTT15=
EXTT16=
PLAYORDER=
